<svg width="1000" height="1000" viewBox="0 0 1000 1000" fill="none" xmlns="http://www.w3.org/2000/svg">
<path d="M472.057 10.7102C444.357 13.6202 404.247 25.4301 379.067 38.0301C303.117 76.2001 251.397 143.42 232.407 228.67C226.017 257.73 226.017 307.71 232.407 336.77C249.657 414.26 296.147 477.23 365.317 517.72C374.617 523.15 379.657 527.02 377.907 527.6C376.357 528.18 364.737 532.25 351.947 536.71C247.517 572.16 153.177 650.43 100.867 744.78C70.8374 799.03 52.4374 858.7 46.6174 920.5C43.7074 952.08 44.6774 968.74 49.9074 975.71C63.8574 994.7 87.8874 994.7 101.637 975.9C104.927 971.44 105.897 966.02 107.257 942.96C110.937 879.22 124.887 827.49 152.397 775.19C212.647 661.08 325.787 583.59 453.657 568.67C640.227 546.97 813.817 657.21 872.907 834.86C885.887 873.8 890.537 900.92 894.027 959.43C895.967 990.82 931.617 1001.08 950.407 975.7C954.087 970.66 954.477 967.76 954.287 943.73C953.317 839.31 907.987 733.14 830.487 652.93C780.107 601.02 714.617 558.98 648.357 536.51C635.567 532.25 623.947 528.18 622.397 527.6C620.657 527.02 625.687 523.14 634.987 517.72C705.127 476.84 753.167 410 768.867 331.73C773.907 306.16 773.517 255.2 767.897 229.05C744.647 120.75 666.187 41.1301 558.277 16.1301C538.127 11.4901 492.207 8.58019 472.057 10.7102ZM543.747 76.1902C624.927 93.6302 685.367 153.3 705.907 235.83C710.947 255.98 711.907 303.06 707.847 322.43C698.357 365.83 680.337 400.31 651.277 430.73C568.537 516.75 431.957 516.94 349.427 431.12C319.587 399.93 301.767 365.83 292.467 322.43C289.177 306.74 289.367 259.85 292.657 243C300.987 201.35 321.327 162.99 350.777 133.35C380.997 103.32 421.687 82.0101 461.397 75.4201C469.337 74.2601 477.287 72.9002 478.837 72.5102C485.627 70.7702 531.347 73.4802 543.747 76.1902Z" fill="white"/>
</svg>
